<svg width="24" height="25" viewBox="0 0 24 25" fill="none" xmlns="http://www.w3.org/2000/svg">
<path fill-rule="evenodd" clip-rule="evenodd" d="M6.48311 3.16141C2.81152 4.34232 1.17386 8.34663 2.40482 12.1667C3.02947 13.9654 4.04534 15.5822 5.38004 16.9086C7.21101 18.6851 9.22254 20.2485 11.3849 21.5768L11.6304 21.7237C11.8656 21.8643 12.1598 21.8619 12.3926 21.7173L12.6218 21.575C14.7812 20.2485 16.7927 18.6851 18.6174 16.9148C19.9584 15.5822 20.9743 13.9654 21.5937 12.1823C22.8291 8.34896 21.1847 4.34274 17.512 3.16147L17.2463 3.08243C15.5624 2.61975 13.773 2.84774 12.2645 3.70093L11.9964 3.85972L11.733 3.70182C10.1419 2.79992 8.2404 2.59672 6.48311 3.16141ZM11.376 5.19836L11.5727 5.33933C11.832 5.52487 12.182 5.52118 12.4373 5.33021C13.7673 4.33551 15.4886 4.04606 17.0654 4.55142C19.911 5.46666 21.206 8.62163 20.2078 11.7196C19.6663 13.2778 18.77 14.7042 17.593 15.8739L17.065 16.375C15.6423 17.6958 14.1039 18.8914 12.4705 19.945L12.0026 20.2389L12.1454 20.3288C10.0818 19.0611 8.15508 17.5636 6.40715 15.8678C5.23638 14.7042 4.3401 13.2778 3.7934 11.7039C2.79941 8.61868 4.08879 5.46594 6.93286 4.55119C8.43464 4.0686 10.0719 4.30787 11.376 5.19836ZM15.8721 6.8262C15.4873 6.70351 15.0758 6.9154 14.9528 7.29948C14.8299 7.68355 15.0422 8.09436 15.427 8.21704C16.1832 8.45818 16.7224 9.13818 16.7899 9.94031C16.8238 10.3421 17.1775 10.6404 17.58 10.6066C17.9825 10.5729 18.2814 10.2198 18.2475 9.818C18.1306 8.42945 17.1935 7.24755 15.8721 6.8262Z" fill="#333333"/>
</svg>
