<svg width="28" height="29" viewBox="0 0 28 29" fill="none" xmlns="http://www.w3.org/2000/svg">
<g clip-path="url(#clip0)">
<path d="M27.9703 8.36147C27.9047 6.87372 27.6641 5.85091 27.3194 4.96463C26.9639 4.02386 26.4169 3.1816 25.7003 2.48142C25.0001 1.77034 24.1523 1.2178 23.2224 0.86782C22.331 0.523179 21.3135 0.282592 19.8258 0.216997C18.3269 0.145847 17.8511 0.129395 14.0496 0.129395C10.2481 0.129395 9.77224 0.145847 8.27894 0.211442C6.79119 0.277037 5.76838 0.517837 4.88232 0.862265C3.94134 1.2178 3.09907 1.76478 2.39889 2.48142C1.68782 3.1816 1.1355 4.02942 0.785299 4.95929C0.440659 5.85091 0.200072 6.86817 0.134477 8.35592C0.0633272 9.85478 0.046875 10.3306 0.046875 14.1321C0.046875 17.9337 0.0633272 18.4095 0.128922 19.9028C0.194517 21.3905 0.435317 22.4134 0.779958 23.2996C1.1355 24.2404 1.68782 25.0827 2.39889 25.7828C3.09907 26.4939 3.94689 27.0465 4.87676 27.3964C5.76838 27.7411 6.78564 27.9817 8.2736 28.0473C9.76669 28.1131 10.2427 28.1293 14.0442 28.1293C17.8458 28.1293 18.3216 28.1131 19.8149 28.0473C21.3026 27.9817 22.3255 27.7411 23.2115 27.3964C25.0933 26.6689 26.581 25.1812 27.3085 23.2996C27.653 22.408 27.8938 21.3905 27.9594 19.9028C28.025 18.4095 28.0414 17.9337 28.0414 14.1321C28.0414 10.3306 28.0359 9.85478 27.9703 8.36147ZM25.4488 19.7934C25.3886 21.1608 25.1589 21.8993 24.9674 22.3916C24.4969 23.6114 23.5288 24.5795 22.309 25.05C21.8167 25.2414 21.073 25.4711 19.7108 25.5311C18.234 25.597 17.7911 25.6132 14.0551 25.6132C10.3192 25.6132 9.87074 25.597 8.39923 25.5311C7.03178 25.4711 6.29336 25.2414 5.80107 25.05C5.19405 24.8256 4.64152 24.4701 4.19303 24.0052C3.7281 23.5511 3.37256 23.0041 3.14822 22.3971C2.95677 21.9048 2.72708 21.1608 2.66704 19.7989C2.60123 18.3221 2.585 17.879 2.585 14.143C2.585 10.4071 2.60123 9.95862 2.66704 8.48732C2.72708 7.11987 2.95677 6.38144 3.14822 5.88916C3.37256 5.28192 3.7281 4.7296 4.19859 4.2809C4.65241 3.81597 5.19939 3.46043 5.80663 3.23629C6.29891 3.04485 7.04289 2.81516 8.40479 2.75491C9.88164 2.68931 10.3248 2.67286 14.0605 2.67286C17.802 2.67286 18.2449 2.68931 19.7164 2.75491C21.0839 2.81516 21.8223 3.04485 22.3146 3.23629C22.9216 3.46043 23.4741 3.81597 23.9226 4.2809C24.3875 4.73494 24.7431 5.28192 24.9674 5.88916C25.1589 6.38144 25.3886 7.12521 25.4488 8.48732C25.5144 9.96417 25.5309 10.4071 25.5309 14.143C25.5309 17.879 25.5144 18.3165 25.4488 19.7934Z" fill="white"/>
<path d="M14.0522 6.93945C10.0812 6.93945 6.85938 10.1611 6.85938 14.1323C6.85938 18.1034 10.0812 21.3251 14.0522 21.3251C18.0234 21.3251 21.245 18.1034 21.245 14.1323C21.245 10.1611 18.0234 6.93945 14.0522 6.93945ZM14.0522 18.7981C11.476 18.7981 9.38639 16.7086 9.38639 14.1323C9.38639 11.5559 11.476 9.46647 14.0522 9.46647C16.6286 9.46647 18.718 11.5559 18.718 14.1323C18.718 16.7086 16.6286 18.7981 14.0522 18.7981Z" fill="white"/>
<path d="M23.2063 6.65503C23.2063 7.58233 22.4544 8.33422 21.5269 8.33422C20.5995 8.33422 19.8477 7.58233 19.8477 6.65503C19.8477 5.7275 20.5995 4.97583 21.5269 4.97583C22.4544 4.97583 23.2063 5.7275 23.2063 6.65503Z" fill="white"/>
</g>
<defs>
<clipPath id="clip0">
<rect width="28" height="28" fill="white" transform="translate(0 0.129395)"/>
</clipPath>
</defs>
</svg>
