<svg width="18" height="18" viewBox="0 0 18 18" fill="none" xmlns="http://www.w3.org/2000/svg">
<path fill-rule="evenodd" clip-rule="evenodd" d="M8.70902 1.5C4.72779 1.5 1.50037 4.65614 1.50037 8.54945C1.50037 12.4427 4.72779 15.5989 8.70902 15.5989C10.4118 15.5989 11.9767 15.0215 13.2102 14.0561L15.5533 16.3415L15.6156 16.394C15.8332 16.5514 16.1416 16.5335 16.3384 16.3405C16.5549 16.1282 16.5545 15.7845 16.3374 15.5727L14.0218 13.3142C15.1991 12.0595 15.9177 10.3865 15.9177 8.54945C15.9177 4.65614 12.6903 1.5 8.70902 1.5ZM8.70879 2.58581C12.0768 2.58581 14.8071 5.25582 14.8071 8.54945C14.8071 11.8431 12.0768 14.5131 8.70879 14.5131C5.34077 14.5131 2.61046 11.8431 2.61046 8.54945C2.61046 5.25582 5.34077 2.58581 8.70879 2.58581Z" fill="#333333"/>
</svg>
