<svg width="28" height="29" viewBox="0 0 28 29" fill="none" xmlns="http://www.w3.org/2000/svg">
<g clip-path="url(#clip0)">
<path d="M28 5.44764C26.9587 5.90439 25.8492 6.20714 24.6925 6.35414C25.8825 5.64364 26.7908 4.52714 27.2178 3.18139C26.1083 3.84289 24.8832 4.31014 23.5777 4.57089C22.5243 3.44914 21.0227 2.75439 19.3848 2.75439C16.2067 2.75439 13.6482 5.33389 13.6482 8.49614C13.6482 8.95114 13.6868 9.38864 13.7812 9.80514C9.009 9.57239 4.78625 7.28514 1.9495 3.80089C1.45425 4.66014 1.16375 5.64364 1.16375 6.70239C1.16375 8.69039 2.1875 10.4526 3.7135 11.4729C2.79125 11.4554 1.8865 11.1876 1.12 10.7659C1.12 10.7834 1.12 10.8061 1.12 10.8289C1.12 13.6184 3.10975 15.9354 5.719 16.4691C5.25175 16.5969 4.7425 16.6581 4.214 16.6581C3.8465 16.6581 3.4755 16.6371 3.12725 16.5601C3.871 18.8334 5.9815 20.5046 8.491 20.5589C6.538 22.0866 4.05825 23.0071 1.37375 23.0071C0.903 23.0071 0.4515 22.9861 0 22.9284C2.54275 24.5681 5.55625 25.5044 8.806 25.5044C19.369 25.5044 25.144 16.7544 25.144 9.16989C25.144 8.91614 25.1353 8.67114 25.123 8.42789C26.2622 7.61939 27.2195 6.60964 28 5.44764Z" fill="white"/>
</g>
<defs>
<clipPath id="clip0">
<rect width="28" height="28" fill="white" transform="translate(0 0.129395)"/>
</clipPath>
</defs>
</svg>
